<svg width="140" height="40" viewBox="0 0 140 40" fill="none" xmlns="http://www.w3.org/2000/svg">
  <path d="M25.3 7.5C25.3 5.1 23.4 3.2 21 3.2H11.4C9 3.2 7.1 5.1 7.1 7.5V11.8H25.3V7.5Z" fill="#303018"/>
  <path d="M7.1 15H25.3V29.2C25.3 31.6 23.4 33.5 21 33.5H11.4C9 33.5 7.1 31.6 7.1 29.2V15Z" fill="#303018"/>
  <path d="M35.7 23.4H33.2V29.2H29.7V7.5H35.7C39.9 7.5 42.5 10.1 42.5 15.3C42.5 20.5 39.9 23.4 35.7 23.4ZM35.2 11H33.2V19.9H35.2C37.1 19.9 38.3 18.3 38.3 15.5C38.3 12.6 37.1 11 35.2 11Z" fill="#303018"/>
  <path d="M51.6 29.4C47.8 29.4 45.3 26.8 45.3 22.7V14.1C45.3 10 47.8 7.3 51.6 7.3C55.4 7.3 57.9 10 57.9 14.1V22.7C57.9 26.8 55.4 29.4 51.6 29.4ZM51.6 11C50.2 11 49.3 12.1 49.3 14.4V22.3C49.3 24.6 50.2 25.7 51.6 25.7C53 25.7 54 24.6 54 22.3V14.4C54 12.1 53 11 51.6 11Z" fill="#303018"/>
  <path d="M70.9 29.2L63.3 16.4V29.2H59.9V7.5H63.3L70.9 20.2V7.5H74.3V29.2H70.9Z" fill="#303018"/>
  <path d="M77.3 29.2V7.5H88.1V11H80.8V16.4H87.2V19.9H80.8V25.7H88.1V29.2H77.3Z" fill="#303018"/>
  <path d="M96.6 29.2V7.5H100V25.7H107.3V29.2H96.6Z" fill="#303018"/>
  <path d="M108.1 29.2V7.5H111.5V29.2H108.1Z" fill="#303018"/>
  <path d="M124.9 29.2L123.6 24.3H118.2L116.9 29.2H113.3L118.6 7.5H123.2L128.5 29.2H124.9ZM119 20.9H122.8L121 13L119 20.9Z" fill="#303018"/>
  <path d="M130.4 29.2V11H126.1V7.5H138.2V11H133.8V29.2H130.4Z" fill="#303018"/>
</svg>
