<svg xmlns="http://www.w3.org/2000/svg" viewBox="0 0 1024 1024">
  <path d="M192 64h640a128 128 0 0 1 128 128v640a128 128 0 0 1-128 128H192A128 128 0 0 1 64 832V192A128 128 0 0 1 192 64z" fill="#02A1E2"/>
  <path d="M230.4 580.3c0 2.8 0.6 5.5 1.6 8.1 5.7 14.1 20.1 24 39.8 30.3 33.8 10.8 90 12.8 142.5-6.1-24.5-29.8-56.5-70.7-91.5-110-21.9 24.3-56.3 64.7-92.4 77.7z" fill="#FFFFFF"/>
  <path d="M563.7 510.9H450.2c-13.7 0-25.1-10.5-26.4-24.1-1.4-15.2 10.8-28 25.7-28h107.9c14.1 0 25.6-11.5 25.6-25.6s-11.5-25.6-25.6-25.6h-55.8V392c0-14.1-11.5-25.6-25.6-25.6s-25.6 11.5-25.6 25.6v15.6h-26.5c-42.1 0-76.2 33.3-77 75.4-0.8 42.9 33.9 78.5 76.5 78.5h113.7c13.7 0 25.1 10.5 26.4 24.1 1.4 15.2-10.8 28-25.7 28H425.1c-14.1 0-25.6 11.5-25.6 25.6s11.5 25.6 25.6 25.6h55.8v15.6c0 14.1 11.5 25.6 25.6 25.6s25.6-11.5 25.6-25.6v-15.6h26.7c42.1 0 76.2-33.3 77-75.4 0.7-42.7-34-78.5-76.5-78.5z" fill="#FFFFFF"/>
  <path d="M858.1 564.1v-25.6c-129.9 53.7-265.1 89.7-381.7 89.7-63.5 0-124.8-10.5-180.8-37 24.3 39.5 63.9 66.7 103.3 81.5 52 19.4 108.7 19.5 163.3 3.1 53.2-16 103.6-48.5 179.8-48.5 51.7 0 90.7 11.1 90.7 11.1 14.1 0 25.6-11.5 25.6-25.6 0-21.3-0.1-41.8-0.2-48.7z" fill="#FFFFFF"/>
</svg> 