<svg xmlns="http://www.w3.org/2000/svg" viewBox="0 0 1024 1024">
  <path d="M192 64h640a128 128 0 0 1 128 128v640a128 128 0 0 1-128 128H192A128 128 0 0 1 64 832V192A128 128 0 0 1 192 64z" fill="#6366F1"/>
  <path d="M188.8 307.2h646.4c11.78 0 21.33 9.55 21.33 21.33v366.93c0 11.78-9.55 21.33-21.33 21.33H188.8c-11.78 0-21.33-9.55-21.33-21.33V328.53c0-11.78 9.55-21.33 21.33-21.33z" fill="#FFFFFF"/>
  <path d="M188.8 412.8h646.4v76.8H188.8z" fill="#6366F1"/>
  <path d="M289.6 556.8h136.53c5.89 0 10.67 4.78 10.67 10.67v64c0 5.89-4.78 10.67-10.67 10.67H289.6c-5.89 0-10.67-4.78-10.67-10.67v-64c0-5.89 4.78-10.67 10.67-10.67z" fill="#6366F1"/>
  <path d="M493.13 566.07h243.2c5.89 0 10.67 4.78 10.67 10.67s-4.78 10.67-10.67 10.67h-243.2c-5.89 0-10.67-4.78-10.67-10.67s4.78-10.67 10.67-10.67z" fill="#6366F1"/>
  <path d="M493.13 609.6h153.6c5.89 0 10.67 4.78 10.67 10.67s-4.78 10.67-10.67 10.67h-153.6c-5.89 0-10.67-4.78-10.67-10.67s4.78-10.67 10.67-10.67z" fill="#6366F1"/>
</svg> 