<svg xmlns="http://www.w3.org/2000/svg" viewBox="0 0 500 500">
  <rect x="100" y="100" width="300" height="300" fill="white" stroke="black" stroke-width="10"/>
  <!-- 左上角定位点 -->
  <rect x="130" y="130" width="60" height="60" fill="black"/>
  <rect x="140" y="140" width="40" height="40" fill="white"/>
  <rect x="150" y="150" width="20" height="20" fill="black"/>
  
  <!-- 右上角定位点 -->
  <rect x="310" y="130" width="60" height="60" fill="black"/>
  <rect x="320" y="140" width="40" height="40" fill="white"/>
  <rect x="330" y="150" width="20" height="20" fill="black"/>
  
  <!-- 左下角定位点 -->
  <rect x="130" y="310" width="60" height="60" fill="black"/>
  <rect x="140" y="320" width="40" height="40" fill="white"/>
  <rect x="150" y="330" width="20" height="20" fill="black"/>
  
  <!-- 随机方块模拟二维码数据 -->
  <rect x="210" y="130" width="15" height="15" fill="black"/>
  <rect x="240" y="130" width="15" height="15" fill="black"/>
  <rect x="270" y="130" width="15" height="15" fill="black"/>
  
  <rect x="210" y="160" width="15" height="15" fill="black"/>
  <rect x="240" y="160" width="15" height="15" fill="black"/>
  <rect x="270" y="160" width="15" height="15" fill="black"/>
  
  <rect x="130" y="190" width="15" height="15" fill="black"/>
  <rect x="160" y="190" width="15" height="15" fill="black"/>
  <rect x="190" y="190" width="15" height="15" fill="black"/>
  <rect x="250" y="190" width="15" height="15" fill="black"/>
  <rect x="280" y="190" width="15" height="15" fill="black"/>
  <rect x="310" y="190" width="15" height="15" fill="black"/>
  <rect x="340" y="190" width="15" height="15" fill="black"/>
  
  <rect x="130" y="220" width="15" height="15" fill="black"/>
  <rect x="160" y="220" width="15" height="15" fill="black"/>
  <rect x="220" y="220" width="15" height="15" fill="black"/>
  <rect x="250" y="220" width="15" height="15" fill="black"/>
  <rect x="310" y="220" width="15" height="15" fill="black"/>
  <rect x="340" y="220" width="15" height="15" fill="black"/>
  
  <rect x="130" y="250" width="15" height="15" fill="black"/>
  <rect x="190" y="250" width="15" height="15" fill="black"/>
  <rect x="220" y="250" width="15" height="15" fill="black"/>
  <rect x="250" y="250" width="15" height="15" fill="black"/>
  <rect x="310" y="250" width="15" height="15" fill="black"/>
  <rect x="340" y="250" width="15" height="15" fill="black"/>
  
  <rect x="190" y="280" width="15" height="15" fill="black"/>
  <rect x="220" y="280" width="15" height="15" fill="black"/>
  <rect x="250" y="280" width="15" height="15" fill="black"/>
  <rect x="310" y="280" width="15" height="15" fill="black"/>
  <rect x="340" y="280" width="15" height="15" fill="black"/>
  
  <rect x="220" y="310" width="15" height="15" fill="black"/>
  <rect x="250" y="310" width="15" height="15" fill="black"/>
  <rect x="280" y="310" width="15" height="15" fill="black"/>
  <rect x="310" y="310" width="15" height="15" fill="black"/>
  
  <rect x="220" y="340" width="15" height="15" fill="black"/>
  <rect x="250" y="340" width="15" height="15" fill="black"/>
  <rect x="280" y="340" width="15" height="15" fill="black"/>
  <rect x="310" y="340" width="15" height="15" fill="black"/>
  <rect x="340" y="340" width="15" height="15" fill="black"/>
  <rect x="370" y="340" width="15" height="15" fill="black"/>
</svg> 