<svg xmlns="http://www.w3.org/2000/svg" viewBox="0 0 1024 1024">
  <path d="M192 64h640a128 128 0 0 1 128 128v640a128 128 0 0 1-128 128H192A128 128 0 0 1 64 832V192A128 128 0 0 1 192 64z" fill="#07C160"/>
  <path d="M403.88 354.23a30.77 30.77 0 0 0 30.77-30.77 30.77 30.77 0 0 0-30.77-30.77 30.77 30.77 0 0 0-30.77 30.77c0 16.92 13.85 30.77 30.77 30.77z m-92.31 0a30.77 30.77 0 0 0 30.77-30.77 30.77 30.77 0 0 0-30.77-30.77 30.77 30.77 0 0 0-30.77 30.77c0 16.92 13.85 30.77 30.77 30.77z" fill="#FFFFFF"/>
  <path d="M694.76 645.39a20.89 20.89 0 0 0 20.89-20.89 20.89 20.89 0 0 0-20.89-20.89 20.89 20.89 0 0 0-20.89 20.89c0 11.51 9.38 20.89 20.89 20.89z m-92.31 0a20.89 20.89 0 0 0 20.89-20.89 20.89 20.89 0 0 0-20.89-20.89 20.89 20.89 0 0 0-20.89 20.89c0 11.51 9.38 20.89 20.89 20.89z" fill="#FFFFFF"/>
  <path d="M350.94 535.07a175.96 175.96 0 0 1-29.94-3.02c-16.72-2.4-30.2-16.5-30.2-33.4V498.42c0-12.62 7.1-24.44 18.33-30.47 104.59-56.18 187.3-63.46 244.41-35.8 57.11 27.66 80.64 77.57 86.5 90.92z" fill="#FFFFFF"/>
  <path d="M798.61 685.32a152.04 152.04 0 0 0-22.02-3.74c-14.32-1.24-25.84-13.05-25.84-27.44V654.05c0-10.53 5.91-20.6 15.69-25.53 90.91-45.94 163.04-51.05 212.76-29.4v86.2z" fill="#FFFFFF"/>
  <path d="M373.36 368.25c-110.08 0-199.39 73.85-199.39 164.92 0 49.85 32.31 103.85 90.46 134.77l-22.77 67.08s79.38-39.69 79.38-39.69c24.62 6.77 41.54 8.62 52.31 10.46 183.53 20.3 290.36-76.77 282.47-172.62-8.11-95.8-124.49-164.92-282.46-164.92z" fill="#FFFFFF"/>
  <path d="M673.69 624.26c-95.71 0-173.42 64.25-173.42 143.39s77.71 143.39 173.42 143.39c21.41 0 36.11-1.85 45.47-9.1l69.01 34.5-19.77-58.34c50.56-26.84 78.71-71.94 78.71-110.45 0-79.14-77.72-143.39-173.42-143.39z" fill="#FFFFFF"/>
</svg> 